<?xml version="1.0" encoding="UTF-8"?>
<svg width="168px" height="40px" viewBox="0 0 168 40" version="1.1" xmlns="http://www.w3.org/2000/svg" xmlns:xlink="http://www.w3.org/1999/xlink">
    <!-- Generator: Sketch 46.1 (44463) - http://www.bohemiancoding.com/sketch -->
    <title>logotype</title>
    <desc>Created with Sketch.</desc>
    <defs></defs>
    <g id="Page-1" stroke="none" stroke-width="1" fill="none" fill-rule="evenodd">
        <g id="Desktop" transform="translate(-136.000000, -45.000000)" fill="#FFFFFF">
            <g id="Group-2" transform="translate(136.000000, 45.000000)">
                <g id="logotype">
                    <g id="Group">
                        <path d="M6.20011293,37.6573008 L5.13074582,37.6573008 L5.13074582,33.9262539 L1.06382635,33.9262539 L1.06382635,37.6573008 L0,37.6573008 L0,29.5853777 L1.06382635,29.5853777 L1.06382635,33.0558611 L5.13074582,33.0558611 L5.13074582,29.5853777 L6.20011293,29.5853777 L6.20011293,37.6573008 Z M11.6300599,37.6573008 C11.5709582,37.5390303 11.5229387,37.3283641 11.4860001,37.0252958 C11.0094922,37.5205537 10.4406463,37.7681789 9.77944533,37.7681789 C9.18842774,37.7681789 8.70361589,37.6009395 8.32499525,37.2664556 C7.9463746,36.9319718 7.75706712,36.5078674 7.75706712,35.9941298 C7.75706712,35.3695136 7.99439406,34.8844269 8.46905507,34.5388552 C8.94371607,34.1932835 9.61137124,34.0205003 10.4720406,34.0205003 L11.4693778,34.0205003 L11.4693778,33.5492685 C11.4693778,33.190761 11.3622575,32.9052528 11.1480136,32.6927354 C10.9337697,32.4802181 10.6179494,32.373961 10.2005433,32.373961 C9.83485113,32.373961 9.52826535,32.4663585 9.28077673,32.6511562 C9.03328812,32.8359539 8.90954566,33.0595557 8.90954566,33.3219685 L7.87896389,33.3219685 C7.87896389,33.0225962 7.98516077,32.7333921 8.19755772,32.4543476 C8.40995466,32.1753031 8.69807142,31.9544731 9.06191662,31.7918512 C9.42576183,31.6292292 9.82561617,31.5479194 10.2614916,31.5479194 C10.9522435,31.5479194 11.4933858,31.7207027 11.884935,32.0662744 C12.2764841,32.4118461 12.4796434,32.887693 12.4944188,33.4938295 L12.4944188,36.2546933 C12.4944188,36.8053904 12.5646011,37.2433544 12.7049678,37.5685983 L12.7049678,37.6573008 L11.6300599,37.6573008 Z M9.92904591,36.8756104 C10.2504117,36.8756104 10.5551506,36.7924527 10.8432717,36.6261348 C11.1313928,36.4598169 11.3400927,36.2436068 11.4693778,35.9774981 L11.4693778,34.7467516 L10.6659673,34.7467516 C9.4100549,34.7467516 8.78210813,35.1144935 8.78210813,35.8499883 C8.78210813,36.1715363 8.88922846,36.4228574 9.10347234,36.6039592 C9.31771622,36.7850609 9.59290466,36.8756104 9.92904591,36.8756104 Z M19.3150971,36.9310495 C19.6807893,36.9310495 20.0003034,36.8201725 20.273649,36.5984153 C20.5469946,36.376658 20.6984406,36.0994656 20.7279915,35.7668298 L21.6976249,35.7668298 C21.6791556,36.1105535 21.5609538,36.4376405 21.3430161,36.7481007 C21.1250784,37.0585608 20.8341913,37.306186 20.4703461,37.4909837 C20.1065008,37.6757814 19.7214217,37.7681789 19.3150971,37.7681789 C18.4987541,37.7681789 17.8495679,37.4956063 17.3675192,36.9504531 C16.8854705,36.4052999 16.6444497,35.6596524 16.6444497,34.7134882 L16.6444497,34.5416272 C16.6444497,33.9576664 16.7515701,33.4383927 16.9658139,32.9837904 C17.1800578,32.529188 17.487567,32.1762297 17.8883509,31.9249048 C18.2891347,31.67358 18.7628651,31.5479194 19.3095564,31.5479194 C19.9818389,31.5479194 20.5405268,31.7493459 20.9856369,32.1522049 C21.4307471,32.5550639 21.668074,33.0780335 21.6976249,33.7211295 L20.7279915,33.7211295 C20.6984406,33.3330543 20.5516119,33.0142831 20.2875009,32.7648062 C20.0233899,32.5153293 19.6974117,32.3905927 19.3095564,32.3905927 C18.7887221,32.3905927 18.385174,32.5781596 18.0988998,32.9532989 C17.8126257,33.3284382 17.6694907,33.8708113 17.6694907,34.5804345 L17.6694907,34.7744711 C17.6694907,35.4656145 17.8117022,35.9978239 18.0961294,36.3711152 C18.3805567,36.7444066 18.7868752,36.9310495 19.3150971,36.9310495 Z M27.3048763,32.490383 L25.2935796,32.490383 L25.2935796,37.6573008 L24.2685386,37.6573008 L24.2685386,32.490383 L22.2960272,32.490383 L22.2960272,31.6587975 L27.3048763,31.6587975 L27.3048763,32.490383 Z M33.3664701,34.724576 C33.3664701,35.6374766 33.1577702,36.3729604 32.740364,36.9310495 C32.3229578,37.4891385 31.7578057,37.7681789 31.0448908,37.7681789 C30.3172004,37.7681789 29.7446606,37.5371852 29.3272545,37.075191 L29.3272545,39.9635645 L28.3022135,39.9635645 L28.3022135,31.6587975 L29.2386023,31.6587975 L29.2884691,32.3240659 C29.7058753,31.8066323 30.2858026,31.5479194 31.0282685,31.5479194 C31.7485712,31.5479194 32.3183405,31.819568 32.7375936,32.3628732 C33.1568467,32.9061784 33.3664701,33.6619897 33.3664701,34.6303296 L33.3664701,34.724576 Z M32.3414291,34.608154 C32.3414291,33.9317944 32.1973707,33.3977371 31.9092497,33.005966 C31.6211286,32.6141948 31.2258915,32.4183122 30.7235266,32.4183122 C30.1029581,32.4183122 29.6375387,32.6936567 29.3272545,33.2443538 L29.3272545,36.1105518 C29.6338449,36.657553 30.102958,36.9310495 30.7346081,36.9310495 C31.2258915,36.9310495 31.6165113,36.7360908 31.9064793,36.3461677 C32.1964473,35.9562445 32.3414291,35.3769124 32.3414291,34.608154 Z M38.3697784,37.6573008 C38.3106767,37.5390303 38.2626572,37.3283641 38.2257186,37.0252958 C37.7492107,37.5205537 37.1803648,37.7681789 36.5191638,37.7681789 C35.9281463,37.7681789 35.4433344,37.6009395 35.0647138,37.2664556 C34.6860931,36.9319718 34.4967856,36.5078674 34.4967856,35.9941298 C34.4967856,35.3695136 34.7341126,34.8844269 35.2087736,34.5388552 C35.6834346,34.1932835 36.3510898,34.0205003 37.2117591,34.0205003 L38.2090963,34.0205003 L38.2090963,33.5492685 C38.2090963,33.190761 38.101976,32.9052528 37.8877321,32.6927354 C37.6734882,32.4802181 37.357668,32.373961 36.9402618,32.373961 C36.5745696,32.373961 36.2679839,32.4663585 36.0204952,32.6511562 C35.7730066,32.8359539 35.6492642,33.0595557 35.6492642,33.3219685 L34.6186824,33.3219685 C34.6186824,33.0225962 34.7248793,32.7333921 34.9372762,32.4543476 C35.1496732,32.1753031 35.4377899,31.9544731 35.8016351,31.7918512 C36.1654803,31.6292292 36.5653347,31.5479194 37.0012102,31.5479194 C37.691962,31.5479194 38.2331043,31.7207027 38.6246535,32.0662744 C39.0162026,32.4118461 39.2193619,32.887693 39.2341373,33.4938295 L39.2341373,36.2546933 C39.2341373,36.8053904 39.3043196,37.2433544 39.4446863,37.5685983 L39.4446863,37.6573008 L38.3697784,37.6573008 Z M36.6687644,36.8756104 C36.9901302,36.8756104 37.2948691,36.7924527 37.5829902,36.6261348 C37.8711113,36.4598169 38.0798112,36.2436068 38.2090963,35.9774981 L38.2090963,34.7467516 L37.4056858,34.7467516 C36.1497734,34.7467516 35.5218266,35.1144935 35.5218266,35.8499883 C35.5218266,36.1715363 35.628947,36.4228574 35.8431909,36.6039592 C36.0574347,36.7850609 36.3326232,36.8756104 36.6687644,36.8756104 Z M45.6226362,35.0516663 L44.9023371,35.0516663 L44.9023371,37.6573008 L43.8772961,37.6573008 L43.8772961,35.0516663 L43.156997,35.0516663 L41.478146,37.6573008 L40.1816077,37.6573008 L42.3258827,34.552715 L40.3866159,31.6587975 L41.6277466,31.6587975 L43.1736193,34.1424661 L43.8772961,34.1424661 L43.8772961,31.6587975 L44.9023371,31.6587975 L44.9023371,34.1424661 L45.6004731,34.1424661 L47.1574273,31.6587975 L48.3985581,31.6587975 L46.4537505,34.5582589 L48.5980255,37.6573008 L47.3014871,37.6573008 L45.6226362,35.0516663 Z M51.9058606,37.7681789 C51.0932114,37.7681789 50.4320204,37.5011502 49.9222677,36.9670848 C49.412515,36.4330195 49.1576425,35.7187871 49.1576425,34.8243662 L49.1576425,34.6358735 C49.1576425,34.0408249 49.271227,33.5095395 49.4983994,33.0420013 C49.7255718,32.5744632 50.0432389,32.2085692 50.4514105,31.9443085 C50.859582,31.6800478 51.3019151,31.5479194 51.778423,31.5479194 C52.5578275,31.5479194 53.1636114,31.8047844 53.595793,32.318522 C54.0279746,32.8322596 54.2440622,33.5677434 54.2440622,34.5249955 L54.2440622,34.951876 L50.1826835,34.951876 C50.1974589,35.5432286 50.3701443,36.0209235 50.7007448,36.384975 C51.0313452,36.7490265 51.4515155,36.9310495 51.9612682,36.9310495 C52.3232665,36.9310495 52.6298522,36.8571315 52.8810347,36.7092933 C53.1322172,36.5614552 53.3519986,36.3655726 53.5403854,36.1216396 L54.1664915,36.6095031 C53.6641266,37.3819575 52.9105905,37.7681789 51.9058606,37.7681789 Z M51.778423,32.3905927 C51.3647107,32.3905927 51.0174931,32.5412006 50.7367597,32.8424208 C50.4560264,33.1436411 50.2824176,33.5658975 50.2159281,34.1092027 L53.2190212,34.1092027 L53.2190212,34.0315881 C53.1894703,33.5104586 53.0491058,33.1066816 52.7979233,32.8202452 C52.5467408,32.5338088 52.2069108,32.3905927 51.778423,32.3905927 Z M58.3331447,37.6573008 L58.3331447,31.6587975 L60.6713464,31.6587975 C61.4692202,31.6587975 62.0814683,31.7983176 62.5081091,32.0773622 C62.9347499,32.3564067 63.1480671,32.7657275 63.1480671,33.3053367 C63.1480671,33.5825333 63.0649565,33.8329304 62.8987328,34.0565356 C62.7325091,34.2801408 62.4868711,34.4510762 62.1618114,34.5693467 C62.5238097,34.6543536 62.8146968,34.8206691 63.0344815,35.068298 C63.2542662,35.3159269 63.3641568,35.6115988 63.3641568,35.9553225 C63.3641568,36.5060196 63.161921,36.9273521 62.7574434,37.2193324 C62.3529657,37.5113128 61.7813495,37.6573008 61.0425775,37.6573008 L58.3331447,37.6573008 Z M59.3581858,35.0239468 L59.3581858,36.8312592 L61.053659,36.8312592 C61.4821467,36.8312592 61.8025843,36.7517974 62.0149812,36.5928714 C62.2273782,36.4339453 62.3335751,36.2103435 62.3335751,35.9220591 C62.3335751,35.3233145 61.8940123,35.0239468 61.0148737,35.0239468 L59.3581858,35.0239468 Z M59.3581858,34.2034491 L60.6824279,34.2034491 C61.6428315,34.2034491 62.1230261,33.9225608 62.1230261,33.3607758 C62.1230261,32.7989908 61.6686881,32.5088627 60.7599986,32.490383 L59.3581858,32.490383 L59.3581858,34.2034491 Z M68.4228728,37.6573008 C68.363771,37.5390303 68.3157515,37.3283641 68.2788129,37.0252958 C67.802305,37.5205537 67.2334591,37.7681789 66.5722582,37.7681789 C65.9812406,37.7681789 65.4964287,37.6009395 65.1178081,37.2664556 C64.7391874,36.9319718 64.54988,36.5078674 64.54988,35.9941298 C64.54988,35.3695136 64.7872069,34.8844269 65.2618679,34.5388552 C65.7365289,34.1932835 66.4041841,34.0205003 67.2648535,34.0205003 L68.2621907,34.0205003 L68.2621907,33.5492685 C68.2621907,33.190761 68.1550703,32.9052528 67.9408264,32.6927354 C67.7265826,32.4802181 67.4107623,32.373961 66.9933561,32.373961 C66.627664,32.373961 66.3210782,32.4663585 66.0735896,32.6511562 C65.826101,32.8359539 65.7023585,33.0595557 65.7023585,33.3219685 L64.6717767,33.3219685 C64.6717767,33.0225962 64.7779736,32.7333921 64.9903706,32.4543476 C65.2027675,32.1753031 65.4908843,31.9544731 65.8547295,31.7918512 C66.2185747,31.6292292 66.618429,31.5479194 67.0543045,31.5479194 C67.7450563,31.5479194 68.2861987,31.7207027 68.6777478,32.0662744 C69.069297,32.4118461 69.2724562,32.887693 69.2872317,33.4938295 L69.2872317,36.2546933 C69.2872317,36.8053904 69.357414,37.2433544 69.4977806,37.5685983 L69.4977806,37.6573008 L68.4228728,37.6573008 Z M66.7218588,36.8756104 C67.0432246,36.8756104 67.3479634,36.7924527 67.6360845,36.6261348 C67.9242056,36.4598169 68.1329056,36.2436068 68.2621907,35.9774981 L68.2621907,34.7467516 L67.4587801,34.7467516 C66.2028677,34.7467516 65.574921,35.1144935 65.574921,35.8499883 C65.574921,36.1715363 65.6820413,36.4228574 65.8962852,36.6039592 C66.1105291,36.7850609 66.3857175,36.8756104 66.7218588,36.8756104 Z M72.0132867,31.6587975 L72.0132867,36.8201714 L74.2074285,36.8201714 L74.2074285,31.6587975 L75.2324695,31.6587975 L75.2324695,36.8201714 L77.4210706,36.8201714 L77.4210706,31.6587975 L78.4516524,31.6587975 L78.4516524,37.6573008 L70.9827049,37.6573008 L70.9827049,31.6587975 L72.0132867,31.6587975 Z M82.5573572,37.7681789 C81.744708,37.7681789 81.083517,37.5011502 80.5737643,36.9670848 C80.0640117,36.4330195 79.8091391,35.7187871 79.8091391,34.8243662 L79.8091391,34.6358735 C79.8091391,34.0408249 79.9227236,33.5095395 80.149896,33.0420013 C80.3770684,32.5744632 80.6947356,32.2085692 81.1029071,31.9443085 C81.5110786,31.6800478 81.9534117,31.5479194 82.4299197,31.5479194 C83.2093241,31.5479194 83.8151081,31.8047844 84.2472897,32.318522 C84.6794713,32.8322596 84.8955589,33.5677434 84.8955589,34.5249955 L84.8955589,34.951876 L80.8341801,34.951876 C80.8489556,35.5432286 81.021641,36.0209235 81.3522414,36.384975 C81.6828419,36.7490265 82.1030122,36.9310495 82.6127648,36.9310495 C82.9747631,36.9310495 83.2813489,36.8571315 83.5325314,36.7092933 C83.7837138,36.5614552 84.0034952,36.3655726 84.1918821,36.1216396 L84.8179882,36.6095031 C84.3156232,37.3819575 83.5620871,37.7681789 82.5573572,37.7681789 Z M82.4299197,32.3905927 C82.0162074,32.3905927 81.6689897,32.5412006 81.3882564,32.8424208 C81.107523,33.1436411 80.9339142,33.5658975 80.8674247,34.1092027 L83.8705179,34.1092027 L83.8705179,34.0315881 C83.840967,33.5104586 83.7006024,33.1066816 83.4494199,32.8202452 C83.1982374,32.5338088 82.8584074,32.3905927 82.4299197,32.3905927 Z M89.9598155,31.6587975 L90.9848566,31.6587975 L90.9848566,37.6573008 L89.9598155,37.6573008 L89.9598155,33.2831611 L87.1949752,37.6573008 L86.1699342,37.6573008 L86.1699342,31.6587975 L87.1949752,31.6587975 L87.1949752,36.038481 L89.9598155,31.6587975 Z M90.2368537,29.4744996 C90.2368537,29.92171 90.0844842,30.2811362 89.7797408,30.5527888 C89.4749973,30.8244414 89.075143,30.9602657 88.5801657,30.9602657 C88.0851885,30.9602657 87.6844107,30.8235174 87.3778203,30.5500168 C87.07123,30.2765162 86.9179371,29.9180141 86.9179371,29.4744996 L87.7545922,29.4744996 C87.7545922,29.7332164 87.8247745,29.9355668 87.9651411,30.081557 C88.1055078,30.2275472 88.310514,30.3005412 88.5801657,30.3005412 C88.8387359,30.3005412 89.0409717,30.2284712 89.1868792,30.084329 C89.3327867,29.9401868 89.4057393,29.7369123 89.4057393,29.4744996 L90.2368537,29.4744996 Z M98.0714914,32.0025195 C98.8250389,32.0025195 99.4280525,32.2547646 99.8805503,32.7592623 C100.333048,33.26376 100.559294,33.9280978 100.559294,34.7522955 L100.559294,34.8465418 C100.559294,35.4120228 100.450326,35.9174369 100.232389,36.3627994 C100.014451,36.8081618 99.701401,37.1537284 99.2932295,37.3995093 C98.885058,37.6452902 98.4150214,37.7681789 97.8831055,37.7681789 C97.0778441,37.7681789 96.4295814,37.4993022 95.938298,36.9615409 C95.4470146,36.4237796 95.2013766,35.7021554 95.2013766,34.7966467 L95.2013766,34.2976954 C95.2013766,33.0373751 95.4350097,32.0357866 95.902283,31.2928999 C96.3695563,30.5500131 97.0593743,30.0972655 97.9717577,29.9346436 C98.4888981,29.8422447 98.8379626,29.7295198 99.0189618,29.5964655 C99.1999609,29.4634111 99.2904591,29.2804641 99.2904591,29.047619 L100.132655,29.047619 C100.132655,29.5096133 100.028305,29.8699634 99.8196019,30.1286802 C99.6108988,30.387397 99.277533,30.5703439 98.8194943,30.6775266 L98.0548692,30.8493876 C97.4453823,30.9935298 96.9882739,31.2365351 96.6835305,31.5784109 C96.3787871,31.9202866 96.1802451,32.3758061 96.0878986,32.944983 C96.630896,32.3166709 97.292087,32.0025195 98.0714914,32.0025195 Z M97.872024,32.8451928 C97.369659,32.8451928 96.9707282,33.0142801 96.6752194,33.3524599 C96.3797106,33.6906397 96.2319584,34.1590949 96.2319584,34.7578394 L96.2319584,34.8465418 C96.2319584,35.4896378 96.380634,35.9987479 96.6779897,36.3738872 C96.9753455,36.7490265 97.3770467,36.9365934 97.8831055,36.9365934 C98.3928582,36.9365934 98.7954829,36.7481025 99.0909917,36.3711152 C99.3865005,35.9941279 99.5342527,35.4434391 99.5342527,34.7190321 C99.5342527,34.1535511 99.385577,33.6998796 99.0882213,33.3580038 C98.7908656,33.0161281 98.3854705,32.8451928 97.872024,32.8451928 Z M104.199574,37.7681789 C103.386925,37.7681789 102.725734,37.5011502 102.215982,36.9670848 C101.706229,36.4330195 101.451356,35.7187871 101.451356,34.8243662 L101.451356,34.6358735 C101.451356,34.0408249 101.564941,33.5095395 101.792113,33.0420013 C102.019286,32.5744632 102.336953,32.2085692 102.745124,31.9443085 C103.153296,31.6800478 103.595629,31.5479194 104.072137,31.5479194 C104.851541,31.5479194 105.457325,31.8047844 105.889507,32.318522 C106.321689,32.8322596 106.537776,33.5677434 106.537776,34.5249955 L106.537776,34.951876 L102.476397,34.951876 C102.491173,35.5432286 102.663858,36.0209235 102.994459,36.384975 C103.325059,36.7490265 103.745229,36.9310495 104.254982,36.9310495 C104.61698,36.9310495 104.923566,36.8571315 105.174749,36.7092933 C105.425931,36.5614552 105.645712,36.3655726 105.834099,36.1216396 L106.460205,36.6095031 C105.957841,37.3819575 105.204304,37.7681789 104.199574,37.7681789 Z M104.072137,32.3905927 C103.658425,32.3905927 103.311207,32.5412006 103.030474,32.8424208 C102.74974,33.1436411 102.576131,33.5658975 102.509642,34.1092027 L105.512735,34.1092027 L105.512735,34.0315881 C105.483184,33.5104586 105.34282,33.1066816 105.091637,32.8202452 C104.840455,32.5338088 104.500625,32.3905927 104.072137,32.3905927 Z M111.020253,33.2997928 C111.020253,33.0189003 110.913132,32.7962225 110.698889,32.6317525 C110.484645,32.4672825 110.190987,32.3850488 109.817907,32.3850488 C109.455909,32.3850488 109.153941,32.4792942 108.911993,32.6677879 C108.670045,32.8562815 108.549073,33.0780354 108.549073,33.3330563 L107.529573,33.3330563 C107.529573,32.8119267 107.747507,32.3850505 108.183383,32.0524146 C108.619258,31.7197788 109.164094,31.5534633 109.817907,31.5534633 C110.519741,31.5534633 111.066424,31.7040712 111.457973,32.0052914 C111.849522,32.3065117 112.045294,32.7361599 112.045294,33.2942489 C112.045294,33.5640536 111.96403,33.8116788 111.8015,34.037132 C111.63897,34.2625852 111.408108,34.4418362 111.108905,34.5748906 C111.807044,34.8114316 112.156109,35.2771149 112.156109,35.9719542 C112.156109,36.5226513 111.943715,36.9587674 111.518921,37.2803154 C111.094127,37.6018634 110.527128,37.762635 109.817907,37.762635 C109.127156,37.762635 108.557386,37.5935476 108.108582,37.2553678 C107.659778,36.917188 107.43538,36.4598206 107.43538,35.8832518 L108.45488,35.8832518 C108.45488,36.1752321 108.585086,36.4256292 108.845504,36.6344506 C109.105921,36.843272 109.430052,36.9476812 109.817907,36.9476812 C110.209457,36.9476812 110.525277,36.8571317 110.765378,36.6760299 C111.005479,36.4949282 111.125527,36.2602386 111.125527,35.9719542 C111.125527,35.6356224 111.024871,35.394465 110.823556,35.2484748 C110.62224,35.1024847 110.30919,35.0294907 109.884397,35.0294907 L108.859355,35.0294907 L108.859355,34.1646417 L109.973049,34.1646417 C110.671188,34.146162 111.020253,33.8578819 111.020253,33.2997928 Z M113.214395,34.6026101 C113.214395,34.0149534 113.329826,33.4864399 113.560692,33.0170538 C113.791558,32.5476676 114.112919,32.1854696 114.524785,31.9304487 C114.93665,31.6754279 115.406687,31.5479194 115.934909,31.5479194 C116.751252,31.5479194 117.411519,31.8306557 117.915731,32.3961366 C118.419943,32.9616176 118.672045,33.7137329 118.672045,34.6525052 L118.672045,34.724576 C118.672045,35.3085367 118.560308,35.8324303 118.336829,36.2962725 C118.113351,36.7601148 117.793837,37.1213889 117.378277,37.3801056 C116.962718,37.6388224 116.485294,37.7681789 115.94599,37.7681789 C115.133341,37.7681789 114.474921,37.4854426 113.970709,36.9199617 C113.466497,36.3544807 113.214395,35.6060612 113.214395,34.6746808 L113.214395,34.6026101 Z M114.244976,34.724576 C114.244976,35.3898477 114.399193,35.923905 114.70763,36.326764 C115.016067,36.729623 115.42885,36.9310495 115.94599,36.9310495 C116.466825,36.9310495 116.880531,36.7268511 117.187121,36.3184482 C117.493712,35.9100452 117.647004,35.3381049 117.647004,34.6026101 C117.647004,33.9447303 117.490941,33.4115969 117.17881,33.003194 C116.866679,32.5947911 116.452049,32.3905927 115.934909,32.3905927 C115.42885,32.3905927 115.020685,32.5920192 114.7104,32.9948782 C114.400116,33.3977371 114.244976,33.9742973 114.244976,34.724576 Z M124.861077,37.6573008 L123.836036,37.6573008 L123.836036,32.5070147 L121.076736,32.5070147 L121.076736,37.6573008 L120.046154,37.6573008 L120.046154,31.6587975 L124.861077,31.6587975 L124.861077,37.6573008 Z M130.207912,37.6573008 C130.148811,37.5390303 130.100791,37.3283641 130.063853,37.0252958 C129.587345,37.5205537 129.018499,37.7681789 128.357298,37.7681789 C127.76628,37.7681789 127.281468,37.6009395 126.902848,37.2664556 C126.524227,36.9319718 126.33492,36.5078674 126.33492,35.9941298 C126.33492,35.3695136 126.572247,34.8844269 127.046908,34.5388552 C127.521569,34.1932835 128.189224,34.0205003 129.049893,34.0205003 L130.04723,34.0205003 L130.04723,33.5492685 C130.04723,33.190761 129.94011,32.9052528 129.725866,32.6927354 C129.511622,32.4802181 129.195802,32.373961 128.778396,32.373961 C128.412704,32.373961 128.106118,32.4663585 127.858629,32.6511562 C127.611141,32.8359539 127.487398,33.0595557 127.487398,33.3219685 L126.456816,33.3219685 C126.456816,33.0225962 126.563013,32.7333921 126.77541,32.4543476 C126.987807,32.1753031 127.275924,31.9544731 127.639769,31.7918512 C128.003614,31.6292292 128.403469,31.5479194 128.839344,31.5479194 C129.530096,31.5479194 130.071238,31.7207027 130.462787,32.0662744 C130.854337,32.4118461 131.057496,32.887693 131.072271,33.4938295 L131.072271,36.2546933 C131.072271,36.8053904 131.142454,37.2433544 131.28282,37.5685983 L131.28282,37.6573008 L130.207912,37.6573008 Z M128.506898,36.8756104 C128.828264,36.8756104 129.133003,36.7924527 129.421124,36.6261348 C129.709245,36.4598169 129.917945,36.2436068 130.04723,35.9774981 L130.04723,34.7467516 L129.24382,34.7467516 C127.987907,34.7467516 127.359961,35.1144935 127.359961,35.8499883 C127.359961,36.1715363 127.467081,36.4228574 127.681325,36.6039592 C127.895569,36.7850609 128.170757,36.8756104 128.506898,36.8756104 Z M135.083783,36.9310495 C135.449475,36.9310495 135.768989,36.8201725 136.042335,36.5984153 C136.315681,36.376658 136.467127,36.0994656 136.496677,35.7668298 L137.466311,35.7668298 C137.447842,36.1105535 137.32964,36.4376405 137.111702,36.7481007 C136.893764,37.0585608 136.602877,37.306186 136.239032,37.4909837 C135.875187,37.6757814 135.490108,37.7681789 135.083783,37.7681789 C134.26744,37.7681789 133.618254,37.4956063 133.136205,36.9504531 C132.654156,36.4052999 132.413136,35.6596524 132.413136,34.7134882 L132.413136,34.5416272 C132.413136,33.9576664 132.520256,33.4383927 132.7345,32.9837904 C132.948744,32.529188 133.256253,32.1762297 133.657037,31.9249048 C134.057821,31.67358 134.531551,31.5479194 135.078242,31.5479194 C135.750525,31.5479194 136.309213,31.7493459 136.754323,32.1522049 C137.199433,32.5550639 137.43676,33.0780335 137.466311,33.7211295 L136.496677,33.7211295 C136.467127,33.3330543 136.320298,33.0142831 136.056187,32.7648062 C135.792076,32.5153293 135.466098,32.3905927 135.078242,32.3905927 C134.557408,32.3905927 134.15386,32.5781596 133.867586,32.9532989 C133.581312,33.3284382 133.438177,33.8708113 133.438177,34.5804345 L133.438177,34.7744711 C133.438177,35.4656145 133.580388,35.9978239 133.864815,36.3711152 C134.149243,36.7444066 134.555561,36.9310495 135.083783,36.9310495 Z M143.516823,37.6573008 L142.491782,37.6573008 L142.491782,35.0960175 L139.738023,35.0960175 L139.738023,37.6573008 L138.707442,37.6573008 L138.707442,31.6587975 L139.738023,31.6587975 L139.738023,34.2588881 L142.491782,34.2588881 L142.491782,31.6587975 L143.516823,31.6587975 L143.516823,37.6573008 Z M144.890932,34.6026101 C144.890932,34.0149534 145.006364,33.4864399 145.23723,33.0170538 C145.468096,32.5476676 145.789457,32.1854696 146.201323,31.9304487 C146.613188,31.6754279 147.083225,31.5479194 147.611447,31.5479194 C148.42779,31.5479194 149.088057,31.8306557 149.592269,32.3961366 C150.096481,32.9616176 150.348583,33.7137329 150.348583,34.6525052 L150.348583,34.724576 C150.348583,35.3085367 150.236845,35.8324303 150.013367,36.2962725 C149.789888,36.7601148 149.470374,37.1213889 149.054815,37.3801056 C148.639256,37.6388224 148.161832,37.7681789 147.622528,37.7681789 C146.809879,37.7681789 146.151458,37.4854426 145.647246,36.9199617 C145.143034,36.3544807 144.890932,35.6060612 144.890932,34.6746808 L144.890932,34.6026101 Z M145.921514,34.724576 C145.921514,35.3898477 146.07573,35.923905 146.384168,36.326764 C146.692605,36.729623 147.105388,36.9310495 147.622528,36.9310495 C148.143362,36.9310495 148.557068,36.7268511 148.863659,36.3184482 C149.170249,35.9100452 149.323542,35.3381049 149.323542,34.6026101 C149.323542,33.9447303 149.167479,33.4115969 148.855348,33.003194 C148.543216,32.5947911 148.128587,32.3905927 147.611447,32.3905927 C147.105388,32.3905927 146.697222,32.5920192 146.386938,32.9948782 C146.076654,33.3977371 145.921514,33.9742973 145.921514,34.724576 Z M154.038731,36.9310495 C154.404423,36.9310495 154.723937,36.8201725 154.997283,36.5984153 C155.270628,36.376658 155.422074,36.0994656 155.451625,35.7668298 L156.421258,35.7668298 C156.402789,36.1105535 156.284587,36.4376405 156.06665,36.7481007 C155.848712,37.0585608 155.557825,37.306186 155.19398,37.4909837 C154.830134,37.6757814 154.445055,37.7681789 154.038731,37.7681789 C153.222388,37.7681789 152.573202,37.4956063 152.091153,36.9504531 C151.609104,36.4052999 151.368083,35.6596524 151.368083,34.7134882 L151.368083,34.5416272 C151.368083,33.9576664 151.475204,33.4383927 151.689448,32.9837904 C151.903691,32.529188 152.211201,32.1762297 152.611984,31.9249048 C153.012768,31.67358 153.486499,31.5479194 154.03319,31.5479194 C154.705472,31.5479194 155.26416,31.7493459 155.709271,32.1522049 C156.154381,32.5550639 156.391708,33.0780335 156.421258,33.7211295 L155.451625,33.7211295 C155.422074,33.3330543 155.275245,33.0142831 155.011134,32.7648062 C154.747023,32.5153293 154.421045,32.3905927 154.03319,32.3905927 C153.512356,32.3905927 153.108808,32.5781596 152.822533,32.9532989 C152.536259,33.3284382 152.393124,33.8708113 152.393124,34.5804345 L152.393124,34.7744711 C152.393124,35.4656145 152.535336,35.9978239 152.819763,36.3711152 C153.10419,36.7444066 153.510509,36.9310495 154.038731,36.9310495 Z M162.02851,32.490383 L160.017213,32.490383 L160.017213,37.6573008 L158.992172,37.6573008 L158.992172,32.490383 L157.019661,32.490383 L157.019661,31.6587975 L162.02851,31.6587975 L162.02851,32.490383 Z M166.904381,31.6587975 L167.929422,31.6587975 L167.929422,37.6573008 L166.904381,37.6573008 L166.904381,33.2831611 L164.13954,37.6573008 L163.114499,37.6573008 L163.114499,31.6587975 L164.13954,31.6587975 L164.13954,36.038481 L166.904381,31.6587975 Z" id="На-страже-вашей-безо"></path>
                        <path d="M32.1408705,18.1006494 L37.4949781,0.324675325 L42.913984,0.324675325 L34.6881277,23.961039 L29.6098378,23.961039 L21.4164306,0.324675325 L26.8192119,0.324675325 L32.1408705,18.1006494 Z M50.3123873,23.961039 L45.4450167,23.961039 L45.4450167,0.324675325 L50.3123873,0.324675325 L50.3123873,23.961039 Z M54.8228174,23.961039 L54.8228174,0.324675325 L62.0914242,0.324675325 C64.1681793,0.324675325 66.0258739,0.792744237 67.6645635,1.7288961 C69.3032531,2.66504797 70.5822771,3.99620349 71.501674,5.7224026 C72.4210708,7.4486017 72.8807623,9.41016218 72.8807623,11.6071429 L72.8807623,12.6948052 C72.8807623,14.8917859 72.429183,16.8452295 71.5260108,18.5551948 C70.6228386,20.2651601 69.3492227,21.5909044 67.7051249,22.5324675 C66.0610271,23.4740307 64.2060366,23.9502164 62.1400979,23.961039 L54.8228174,23.961039 Z M59.690188,4.26948052 L59.690188,20.0487013 L62.0427505,20.0487013 C63.9464427,20.0487013 65.4012311,19.4264131 66.4071594,18.1818182 C67.4130877,16.9372232 67.9268606,15.156938 67.9484934,12.8409091 L67.9484934,11.5909091 C67.9484934,9.18829968 67.450945,7.36743044 66.4558331,6.12824675 C65.4607213,4.88906307 64.0059328,4.26948052 62.0914242,4.26948052 L59.690188,4.26948052 Z M90.6304404,13.7175325 L81.2850888,13.7175325 L81.2850888,20.0487013 L92.2528972,20.0487013 L92.2528972,23.961039 L76.4177183,23.961039 L76.4177183,0.324675325 L92.2204481,0.324675325 L92.2204481,4.26948052 L81.2850888,4.26948052 L81.2850888,9.9025974 L90.6304404,9.9025974 L90.6304404,13.7175325 Z M114.513005,12.6785714 C114.513005,15.0054229 114.101987,17.0454458 113.279938,18.7987013 C112.457889,20.5519568 111.28162,21.9047571 109.751095,22.8571429 C108.220569,23.8095286 106.465629,24.2857143 104.486222,24.2857143 C102.528448,24.2857143 100.78162,23.8149398 99.2456863,22.8733766 C97.7097528,21.9318135 96.519963,20.58713 95.6762812,18.8392857 C94.8325994,17.0914415 94.4053567,15.0811802 94.3945403,12.8084416 L94.3945403,11.6396104 C94.3945403,9.31275893 94.8136708,7.26461924 95.6519444,5.49512987 C96.4902179,3.7256405 97.6745996,2.36742898 99.2051249,1.42045455 C100.73565,0.473480114 102.485182,0 104.453773,0 C106.422364,0 108.171896,0.473480114 109.702421,1.42045455 C111.232946,2.36742898 112.417328,3.7256405 113.255601,5.49512987 C114.093875,7.26461924 114.513005,9.30734773 114.513005,11.6233766 L114.513005,12.6785714 Z M109.580737,11.6071429 C109.580737,9.12877549 109.137269,7.24567744 108.250322,5.95779221 C107.363374,4.66990698 106.097871,4.02597403 104.453773,4.02597403 C102.820491,4.02597403 101.560396,4.66179018 100.673448,5.93344156 C99.7865008,7.20509294 99.3376256,9.06925179 99.3268092,11.525974 L99.3268092,12.6785714 C99.3268092,15.0920034 99.7702763,16.9642791 100.657224,18.2954545 C101.544171,19.62663 102.820491,20.2922078 104.486222,20.2922078 C106.119503,20.2922078 107.374191,19.6509804 108.250322,18.3685065 C109.126453,17.0860325 109.56992,15.2164625 109.580737,12.7597403 L109.580737,11.6071429 Z M138.574041,17.7597403 C138.574041,16.8398222 138.249553,16.1336605 137.600567,15.6412338 C136.951581,15.1488071 135.783423,14.6293317 134.09606,14.0827922 C132.408696,13.5362527 131.072887,12.9978381 130.088591,12.4675325 C127.406116,11.0173088 126.064898,9.0638651 126.064898,6.60714286 C126.064898,5.33008019 126.424539,4.19102232 127.143832,3.18993506 C127.863125,2.18884781 128.896079,1.40692922 130.242725,0.844155844 C131.589371,0.281382468 133.100944,0 134.777492,0 C136.464855,0 137.968317,0.305732873 139.287922,0.917207792 C140.607527,1.52868271 141.632368,2.39176932 142.362477,3.50649351 C143.092587,4.62121769 143.457636,5.8874388 143.457636,7.30519481 L138.590265,7.30519481 C138.590265,6.22293831 138.249553,5.38149651 137.568117,4.78084416 C136.886682,4.1801918 135.929442,3.87987013 134.696369,3.87987013 C133.506561,3.87987013 132.58177,4.13149099 131.921968,4.63474026 C131.262165,5.13798953 130.932269,5.80086169 130.932269,6.62337662 C130.932269,7.39177873 131.318951,8.03571169 132.092326,8.55519481 C132.8657,9.07467792 134.004113,9.56168604 135.507597,10.0162338 C138.276604,10.8495713 140.293839,11.8831107 141.559361,13.1168831 C142.824884,14.3506555 143.457636,15.8874367 143.457636,17.7272727 C143.457636,19.7727375 142.684272,21.3771587 141.137523,22.5405844 C139.590773,23.7040101 137.50864,24.2857143 134.891064,24.2857143 C133.073903,24.2857143 131.419013,23.9529254 129.926346,23.2873377 C128.433678,22.6217499 127.295265,21.7099625 126.511074,20.5519481 C125.726883,19.3939336 125.334793,18.0519557 125.334793,16.525974 L130.218388,16.525974 C130.218388,19.1342122 131.775931,20.4383117 134.891064,20.4383117 C136.048422,20.4383117 136.951581,20.2029244 137.600567,19.7321429 C138.249553,19.2613613 138.574041,18.6039003 138.574041,17.7597403 Z M154.149627,14.4805195 L151.618594,17.2077922 L151.618594,23.961039 L146.751223,23.961039 L146.751223,0.324675325 L151.618594,0.324675325 L151.618594,11.038961 L153.760237,8.10064935 L159.779552,0.324675325 L165.766418,0.324675325 L157.378316,10.8279221 L166.009786,23.961039 L160.217615,23.961039 L154.149627,14.4805195 Z" id="VIDEO-SK-Copy-2"></path>
                        <g id="121685" fill-rule="nonzero">
                            <path d="M4.53134956,5.1860119 C4.53134956,3.16336607 6.1952392,1.51785714 8.24047844,1.51785714 C10.2857177,1.51785714 11.9496073,3.16336607 11.9496073,5.1860119 L11.9496073,8.0952381 L13.4844193,8.0952381 L13.4844193,5.1860119 C13.4844193,2.32641964 11.132013,0 8.24047844,0 C5.34894389,0 2.99653761,2.32641964 2.99653761,5.1860119 L2.99653761,8.0952381 L4.53134956,8.0952381 L4.53134956,5.1860119 Z" id="Shape"></path>
                            <path d="M0,9.89417989 L0,24.2857143 L16.4809569,24.2857143 L16.4809569,9.89417989 L0,9.89417989 Z M9.02528591,17.5041149 L9.02528591,20.2568556 L7.45567097,20.2568556 L7.45567097,17.5041149 C6.8370334,17.215359 6.40926101,16.5961119 6.40926101,15.8785397 C6.40926101,14.8850098 7.22912321,14.0795979 8.24047844,14.0795979 C9.25183367,14.0795979 10.0716959,14.8850098 10.0716959,15.8785397 C10.0716959,16.5961119 9.64392348,17.2154104 9.02528591,17.5041149 Z" id="Shape"></path>
                        </g>
                    </g>
                </g>
            </g>
        </g>
    </g>
</svg>